<mxfile host="app.diagrams.net" modified="2024-04-10T09:07:57.802Z" agent="Mozilla/5.0 (Windows NT 10.0; Win64; x64) AppleWebKit/537.36 (KHTML, like Gecko) Chrome/123.0.0.0 Safari/537.36" etag="9K9OjNmu_EsXlZREy3ad" version="24.2.3" type="device">
  <diagram name="Page-1" id="ZTaNG9xOJEFR5tPN8cDJ">
    <mxGraphModel dx="880" dy="595" grid="1" gridSize="10" guides="1" tooltips="1" connect="1" arrows="1" fold="1" page="1" pageScale="1" pageWidth="827" pageHeight="1169" math="0" shadow="0">
      <root>
        <mxCell id="0" />
        <mxCell id="1" parent="0" />
        <mxCell id="1YkMUf87QYMyN_ebg-wq-11" value="" style="edgeStyle=orthogonalEdgeStyle;rounded=0;orthogonalLoop=1;jettySize=auto;html=1;" edge="1" parent="1" source="1YkMUf87QYMyN_ebg-wq-1" target="1YkMUf87QYMyN_ebg-wq-3">
          <mxGeometry relative="1" as="geometry" />
        </mxCell>
        <mxCell id="1YkMUf87QYMyN_ebg-wq-1" value="START&lt;div&gt;&lt;br&gt;&lt;/div&gt;" style="rounded=1;whiteSpace=wrap;html=1;" vertex="1" parent="1">
          <mxGeometry x="330" y="20" width="120" height="60" as="geometry" />
        </mxCell>
        <mxCell id="1YkMUf87QYMyN_ebg-wq-2" value="&lt;div&gt;END&lt;/div&gt;" style="rounded=1;whiteSpace=wrap;html=1;" vertex="1" parent="1">
          <mxGeometry x="330" y="510" width="120" height="60" as="geometry" />
        </mxCell>
        <mxCell id="1YkMUf87QYMyN_ebg-wq-12" style="edgeStyle=orthogonalEdgeStyle;rounded=0;orthogonalLoop=1;jettySize=auto;html=1;" edge="1" parent="1" source="1YkMUf87QYMyN_ebg-wq-3" target="1YkMUf87QYMyN_ebg-wq-4">
          <mxGeometry relative="1" as="geometry" />
        </mxCell>
        <mxCell id="1YkMUf87QYMyN_ebg-wq-3" value="COUNT=1" style="rounded=0;whiteSpace=wrap;html=1;" vertex="1" parent="1">
          <mxGeometry x="330" y="120" width="120" height="60" as="geometry" />
        </mxCell>
        <mxCell id="1YkMUf87QYMyN_ebg-wq-5" value="" style="edgeStyle=orthogonalEdgeStyle;rounded=0;orthogonalLoop=1;jettySize=auto;html=1;" edge="1" parent="1" source="1YkMUf87QYMyN_ebg-wq-4" target="1YkMUf87QYMyN_ebg-wq-2">
          <mxGeometry relative="1" as="geometry" />
        </mxCell>
        <mxCell id="1YkMUf87QYMyN_ebg-wq-4" value="IS COUNT=5" style="rhombus;whiteSpace=wrap;html=1;" vertex="1" parent="1">
          <mxGeometry x="315" y="320" width="150" height="80" as="geometry" />
        </mxCell>
        <mxCell id="1YkMUf87QYMyN_ebg-wq-6" value="YES&lt;div&gt;&lt;br&gt;&lt;/div&gt;" style="text;html=1;align=center;verticalAlign=middle;whiteSpace=wrap;rounded=0;" vertex="1" parent="1">
          <mxGeometry x="380" y="440" width="60" height="30" as="geometry" />
        </mxCell>
        <mxCell id="1YkMUf87QYMyN_ebg-wq-7" value="" style="endArrow=classic;html=1;rounded=0;" edge="1" parent="1" target="1YkMUf87QYMyN_ebg-wq-10">
          <mxGeometry width="50" height="50" relative="1" as="geometry">
            <mxPoint x="200" y="360" as="sourcePoint" />
            <mxPoint x="200" y="290" as="targetPoint" />
          </mxGeometry>
        </mxCell>
        <mxCell id="1YkMUf87QYMyN_ebg-wq-9" value="" style="endArrow=classic;html=1;rounded=0;" edge="1" parent="1">
          <mxGeometry width="50" height="50" relative="1" as="geometry">
            <mxPoint x="315" y="360" as="sourcePoint" />
            <mxPoint x="200" y="360" as="targetPoint" />
          </mxGeometry>
        </mxCell>
        <mxCell id="1YkMUf87QYMyN_ebg-wq-13" style="edgeStyle=orthogonalEdgeStyle;rounded=0;orthogonalLoop=1;jettySize=auto;html=1;" edge="1" parent="1" source="1YkMUf87QYMyN_ebg-wq-10">
          <mxGeometry relative="1" as="geometry">
            <mxPoint x="390" y="230" as="targetPoint" />
          </mxGeometry>
        </mxCell>
        <mxCell id="1YkMUf87QYMyN_ebg-wq-10" value="COUNT=COUNT+1" style="rounded=0;whiteSpace=wrap;html=1;" vertex="1" parent="1">
          <mxGeometry x="140" y="200" width="120" height="60" as="geometry" />
        </mxCell>
        <mxCell id="1YkMUf87QYMyN_ebg-wq-14" value="&lt;div&gt;NO&lt;/div&gt;" style="text;html=1;align=center;verticalAlign=middle;whiteSpace=wrap;rounded=0;" vertex="1" parent="1">
          <mxGeometry x="230" y="330" width="60" height="30" as="geometry" />
        </mxCell>
      </root>
    </mxGraphModel>
  </diagram>
</mxfile>
